<svg xmlns="http://www.w3.org/2000/svg" viewBox="0 0 57 80" width="57" height="80">

    <path d="M0,0,1.82,5.34H54.67L56.49,0Z" />
    <path d="M38.37,22.68l1.56,1.55V49.15l-1.45,1.44h5.94V22.68Z" />
    <path
        d="M40.86,8.51v5.28H35.15V8.51H21.34v5.28H15.62V8.51H1.82V61.4C6.8,70.82,16.57,77.85,28.34,80,40,77.85,49.73,70.82,54.68,61.4V8.51ZM22.94,21h3.27V49.15l-1.45,1.44H30.7V45.38L34,42.11v10.3h-11V22.67H21.63L19.92,21ZM8.81,24.23,12.07,21h4.42l3.26,3.26v7L16.49,28V22.68H12.07V50.15l4.42-2.28V35.35h-.85l-2.17-2.17h3l3.26,3.27v16l-2.59-2.6-5.09,2.6L8.81,49.15ZM45.88,61.52H10.6L8.81,58.46H47.68Zm1.8-12.37-3.26,3.26H36.67V22.75H35.43L33.65,21H44.42l3.26,3.26Z" />
</svg>