<svg id="Layer_1" data-name="Layer 1" xmlns="http://www.w3.org/2000/svg" viewBox="0 0 35 35"><path d="M18.05,4.38A3.83,3.83,0,1,0,21.88,8.2,3.83,3.83,0,0,0,18.05,4.38Zm0,2.18A1.64,1.64,0,1,1,16.41,8.2,1.62,1.62,0,0,1,18.05,6.56ZM14,12.3a2.21,2.21,0,0,0-1.47.76l-2,2.29a2.19,2.19,0,0,0-.51,1.06L9.3,20.64l2.15.38.75-4.24,2-2.29h0l.85.17-1.3,5.88a2.19,2.19,0,0,0,.38,1.75l6,8.34h2.7l-7-9.64,1.3-5.92.51.11.82,2.87a2.2,2.2,0,0,0,1.33,1.43L23.75,21l.76-2.05-3.83-1.47-.86-2.87A2.15,2.15,0,0,0,18.15,13l-3.56-.68A2.24,2.24,0,0,0,14,12.3Zm-.37,11.8-.55,2.12L9.91,30.63h2.7l2.53-3.46.14-.65Z"/></svg>