<svg id="Layer_1" data-name="Layer 1" xmlns="http://www.w3.org/2000/svg" viewBox="0 0 35 35"><defs><style>.cls-1{fill-rule:evenodd;}</style></defs><path class="cls-1" d="M31.56,23.1H29.88a3,3,0,0,1-5.3,0H10.08a3,3,0,0,1-5.29,0h-1a1.43,1.43,0,0,1-1-.43,1.46,1.46,0,0,1-.43-1V17.35a2.41,2.41,0,0,1,2.4-2.42h2a2.39,2.39,0,0,0,1.47-.51h0a11.14,11.14,0,0,1,6.61-2.62,13.28,13.28,0,0,1,8.07,3.12,4.26,4.26,0,0,0,2.77,1.46h3.1A4.34,4.34,0,0,1,33,20.74v.9a1.45,1.45,0,0,1-1.44,1.46Zm-27.1-1H3.75A.46.46,0,0,1,3.41,22a.48.48,0,0,1-.14-.34V17.35A1.45,1.45,0,0,1,4.71,15.9h2a3.32,3.32,0,0,0,2.05-.72,10.26,10.26,0,0,1,6-2.41,12.21,12.21,0,0,1,7.43,2.88,5.23,5.23,0,0,0,3.41,1.7h3.1a3.35,3.35,0,0,1,1.88.58h-.2a.48.48,0,0,0-.48.49.47.47,0,0,0,.48.48H31.5A3.39,3.39,0,0,1,32,20.74v.9a.48.48,0,0,1-.14.34.45.45,0,0,1-.34.15H30.2a2.63,2.63,0,0,0,0-.49,3,3,0,1,0-6,0,2.63,2.63,0,0,0,0,.49H10.41a2.63,2.63,0,0,0,0-.49,3,3,0,1,0-6,0A3.89,3.89,0,0,0,4.46,22.13Zm22.77-2.56a2.08,2.08,0,1,0,2.05,2.07A2.06,2.06,0,0,0,27.23,19.57ZM5.38,21.64a2.06,2.06,0,1,1,2.06,2.08A2.07,2.07,0,0,1,5.38,21.64Zm3.84-5.25h0A7.94,7.94,0,0,1,14.45,14,8.72,8.72,0,0,1,21,16.42l0,0a.77.77,0,0,1,.08.81.75.75,0,0,1-.68.43H9.76a.76.76,0,0,1-.54-1.3Zm1.06.34h9.64A8.2,8.2,0,0,0,14.45,15,6.63,6.63,0,0,0,10.28,16.73Z"/><path d="M29.88,23.1,29.61,23l.09-.15h.18Zm-5.3,0v-.3h.18l.09.15Zm-14.5,0L9.82,23l.08-.15h.18Zm-5.29,0v-.3H5l.08.15Zm-2-.43-.22.21h0Zm3.91-7.74v-.3h0Zm1.48-.51-.19-.24H8Zm0,0L8,14.18H8Zm0,0h-.3v-.15l.11-.09Zm14.68.5.2-.22h0Zm9.77,7.75.21.21h0ZM4.46,22.13l.3-.05,0,.35H4.46Zm-1-.15.22-.21h0ZM6.66,15.9v-.3h0Zm2.05-.72L8.53,15h0Zm13.46.47.2-.23h0Zm8.39,2.28.17-.24.8.54h-1Zm.94,1v-.3h.17l.09.14ZM31.9,22l.21.22h0Zm-1.7.15v.3h-.35l.06-.35Zm-5.94,0,.29-.05.06.35h-.35Zm-13.85,0v.3h-.35l0-.35ZM9.22,16.39,9,16.18H9Zm0,0,.22.2h0Zm0,0L9,16.17H9Zm0,0,.21.22h0Zm11.76,0,.21-.21h0Zm0,0,.24-.19h0Zm.08.81.27.13h0Zm-.68.43v-.3h0Zm-10.66,0v-.3h0Zm-.7-.47-.28.12h0Zm1.68-.49V17h0Zm-.46,0V17H9.47l.61-.53Zm4.85,0V17h0Zm4.79,0,.19-.23.62.53h-.81Zm10,6.07h1.68v.6H29.88Zm-2.65,1.59A2.7,2.7,0,0,0,29.61,23l.53.29A3.3,3.3,0,0,1,27.23,25ZM24.85,23a2.7,2.7,0,0,0,2.38,1.44V25a3.3,3.3,0,0,1-2.91-1.75ZM10.08,22.8h14.5v.6H10.08ZM7.44,24.39A2.71,2.71,0,0,0,9.82,23l.53.29A3.32,3.32,0,0,1,7.44,25ZM5.05,23a2.72,2.72,0,0,0,2.39,1.44V25a3.3,3.3,0,0,1-2.91-1.75Zm-1.3-.15h1v.6h-1ZM3,22.46a1.15,1.15,0,0,0,.8.34v.6a1.74,1.74,0,0,1-1.23-.52Zm-.34-.82a1.15,1.15,0,0,0,.34.82l-.43.42A1.78,1.78,0,0,1,2,21.64Zm0-4.29v4.29H2V17.35Zm2.1-2.12a2.12,2.12,0,0,0-2.1,2.12H2a2.71,2.71,0,0,1,2.7-2.72Zm0,0h0v-.6h0Zm2,0H4.71v-.6H6.65Zm0,0h0v-.6h0Zm1.65-.58a2.67,2.67,0,0,1-1.65.58v-.6a2.08,2.08,0,0,0,1.28-.45Zm0,0h0L8,14.18H8Zm.12-.24a.32.32,0,0,1-.08.2l0,0h0L8,14.16H8a.23.23,0,0,0,0,.05.19.19,0,0,0-.05.09.23.23,0,0,0,0,.11Zm6.31-2.32a10.88,10.88,0,0,0-6.43,2.55l-.37-.47a11.51,11.51,0,0,1,6.8-2.68Zm7.87,3.05a13,13,0,0,0-7.87-3.05v-.6A13.54,13.54,0,0,1,23,14.7Zm3,1.53a4.58,4.58,0,0,1-3-1.53l.4-.45a4,4,0,0,0,2.57,1.38Zm3.1,0h-3.1v-.6h3.1Zm4,4.06a4,4,0,0,0-4-4.06v-.6a4.64,4.64,0,0,1,4.62,4.66Zm0,.9v-.9h.6v.9Zm-.33.82a1.18,1.18,0,0,0,.33-.82h.6a1.74,1.74,0,0,1-.51,1.24Zm-.81.34a1.19,1.19,0,0,0,.81-.34l.42.42a1.73,1.73,0,0,1-1.23.52Zm-27.81-1h.71v.6H3.75Zm-.12-.06a.16.16,0,0,0,.12.06v.6a.81.81,0,0,1-.55-.23Zm-.06-.13a.16.16,0,0,0,.06.13l-.43.43A.79.79,0,0,1,3,21.64Zm0-4.29v4.29H3V17.35ZM4.71,16.2a1.15,1.15,0,0,0-1.14,1.15H3A1.75,1.75,0,0,1,4.71,15.6Zm0,0h0v-.6h0Zm2,0H4.71v-.6h2Zm2.24-.78a3.71,3.71,0,0,1-2.24.78v-.6A3,3,0,0,0,8.53,15Zm5.84-2.35A9.92,9.92,0,0,0,8.9,15.42L8.53,15a10.49,10.49,0,0,1,6.21-2.48ZM22,15.87a11.9,11.9,0,0,0-7.23-2.8v-.6a12.54,12.54,0,0,1,7.63,2.95Zm3.61,1.78A5.53,5.53,0,0,1,22,15.87l.4-.45a4.93,4.93,0,0,0,3.21,1.63Zm3.1,0h-3.1v-.6h3.1Zm1.71.53a3,3,0,0,0-1.71-.53v-.6a3.61,3.61,0,0,1,2.05.64Zm0-.55h.2v.6h-.2Zm-.78.79a.78.78,0,0,1,.78-.79v.6a.18.18,0,0,0-.18.19Zm.78.78a.77.77,0,0,1-.78-.78h.6a.18.18,0,0,0,.18.18Zm1.14,0H30.36v-.6H31.5Zm.24,1.54a3.12,3.12,0,0,0-.49-1.68l.51-.32a3.71,3.71,0,0,1,.58,2Zm0,.9v-.9h.6v.9Zm0,.13a.19.19,0,0,0,0-.13h.6a.79.79,0,0,1-.23.56Zm-.13.06a.18.18,0,0,0,.13-.06l.42.43a.79.79,0,0,1-.55.23Zm-1.36,0h1.36v.6H30.2Zm.34-.19a3.08,3.08,0,0,1,0,.53l-.59-.09a3.15,3.15,0,0,0,0-.44ZM27.23,18.3a3.33,3.33,0,0,1,3.31,3.34h-.6a2.73,2.73,0,0,0-2.71-2.74Zm-3.31,3.34a3.33,3.33,0,0,1,3.31-3.34v.6a2.73,2.73,0,0,0-2.71,2.74Zm0,.53a3.08,3.08,0,0,1,0-.53h.6a3.15,3.15,0,0,0,0,.44Zm-13.55-.34H24.26v.6H10.41Zm.34-.19a4.55,4.55,0,0,1,0,.53l-.6-.09a2.12,2.12,0,0,0,0-.44ZM7.44,18.3a3.33,3.33,0,0,1,3.31,3.34h-.6A2.73,2.73,0,0,0,7.44,18.9ZM4.12,21.64A3.34,3.34,0,0,1,7.44,18.3v.6a2.73,2.73,0,0,0-2.72,2.74Zm0,.53a3.07,3.07,0,0,1,0-.53h.6a3.13,3.13,0,0,0,0,.44Zm20.71-.53a2.36,2.36,0,0,1,2.35-2.37v.6a1.76,1.76,0,0,0-1.75,1.77ZM27.23,24a2.37,2.37,0,0,1-2.35-2.38h.6a1.77,1.77,0,0,0,1.75,1.78Zm2.35-2.38A2.37,2.37,0,0,1,27.23,24v-.6A1.77,1.77,0,0,0,29,21.64Zm-2.35-2.37a2.36,2.36,0,0,1,2.35,2.37H29a1.76,1.76,0,0,0-1.75-1.77Zm-19.79.6a1.76,1.76,0,0,0-1.76,1.77h-.6a2.37,2.37,0,0,1,2.36-2.37Zm1.75,1.77a1.76,1.76,0,0,0-1.75-1.77v-.6a2.36,2.36,0,0,1,2.35,2.37ZM7.44,23.42a1.77,1.77,0,0,0,1.75-1.78h.6A2.37,2.37,0,0,1,7.44,24ZM5.68,21.64a1.77,1.77,0,0,0,1.76,1.78V24a2.38,2.38,0,0,1-2.36-2.38Zm3.76-5.05h0L9,16.18H9Zm0,0h0L9,16.18H9Zm0,0h0L9,16.17H9Zm5-2.3a7.61,7.61,0,0,0-5,2.3L9,16.16a8.25,8.25,0,0,1,5.43-2.46Zm6.32,2.32a8.41,8.41,0,0,0-6.32-2.32v-.6a9,9,0,0,1,6.75,2.51Zm0,0v0l.44-.41.05.06Zm0,.5a.48.48,0,0,0,0-.5l.48-.37a1.08,1.08,0,0,1,.11,1.13Zm-.41.26a.45.45,0,0,0,.41-.26l.54.26a1,1,0,0,1-.95.6Zm0,0h0V18h0Zm-10.66,0H20.42V18H9.76Zm-.42-.28a.46.46,0,0,0,.42.28V18a1.06,1.06,0,0,1-1-.65Zm.09-.51a.46.46,0,0,0-.09.51l-.56.23A1.1,1.1,0,0,1,9,16.18Zm1.31.43h-.46v-.6h.46Zm4.39,0H10.74v-.6h4.39Zm4.79,0H15.13v-.6h4.79Zm-5.47-2.36a8.49,8.49,0,0,1,5.66,1.83l-.39.46a7.87,7.87,0,0,0-5.27-1.69ZM10.08,16.5a6.92,6.92,0,0,1,4.37-1.83v.6a6.34,6.34,0,0,0-4,1.68Z"/></svg>