<svg id="Layer_1" data-name="Layer 1" xmlns="http://www.w3.org/2000/svg" viewBox="0 0 25 25"><path d="M12.5,2.34a7,7,0,0,0-7,7,9.87,9.87,0,0,0,1,3.73,41.88,41.88,0,0,0,2.17,4.2c1.58,2.72,3.18,5,3.18,5l.63.93.63-.93s1.6-2.28,3.18-5a41.88,41.88,0,0,0,2.17-4.2,9.87,9.87,0,0,0,1.05-3.73A7,7,0,0,0,12.5,2.34Zm0,1.57A5.45,5.45,0,0,1,18,9.38a9.69,9.69,0,0,1-.9,3.1,44.08,44.08,0,0,1-2.13,4.05c-1.23,2.12-2,3.24-2.44,3.9-.45-.66-1.21-1.78-2.44-3.9a44.08,44.08,0,0,1-2.13-4.05A9.69,9.69,0,0,1,7,9.38,5.45,5.45,0,0,1,12.5,3.91Zm0,3.9a1.57,1.57,0,1,0,1.56,1.57A1.56,1.56,0,0,0,12.5,7.81Z"/></svg>