<svg id="Layer_1" data-name="Layer 1" xmlns="http://www.w3.org/2000/svg" viewBox="0 0 35 35"><path d="M17.5,4.38a4.18,4.18,0,0,0-2.8,1.16,4,4,0,0,0-.48-.07A4.24,4.24,0,0,0,10.6,7.72a4.34,4.34,0,0,0-4,4,4.22,4.22,0,0,0-2.25,3.62,4.22,4.22,0,0,0,.68,2.19,4.22,4.22,0,0,0-.68,2.19,4.35,4.35,0,0,0,4,4.3A4.23,4.23,0,0,0,12,26.25a4,4,0,0,0,2.19-.68v.68a1.08,1.08,0,0,1-.34,1,3.61,3.61,0,0,1-1.13.61,8.75,8.75,0,0,0-1.71.75,2.58,2.58,0,0,0-1.2,2.06H12c0-.18,0-.07.17-.21a12,12,0,0,1,1.3-.55,5.07,5.07,0,0,0,1.88-1.06,3.56,3.56,0,0,0,1-2.56V20.78H14.22v1.81l-.31.48a2.32,2.32,0,0,1-1.88,1,2.16,2.16,0,0,1-2-1.47l-.27-.78-.82,0c-.19,0-.24,0-.14,0a2.18,2.18,0,0,1-1.61-3.66l.65-.72-.65-.72a2.19,2.19,0,0,1-.58-1.47A2.16,2.16,0,0,1,8,13.26L8.82,13l0-.82c0-.19,0-.24,0-.14a2.18,2.18,0,0,1,2.19-2.19c-.1,0,0,0,.13,0l.82,0,.28-.78a2.16,2.16,0,0,1,2.05-1.47,2.5,2.5,0,0,1,.51.06l.65.18.45-.55a2.16,2.16,0,0,1,3.34,0l.45.55.65-.18a2.5,2.5,0,0,1,.51-.06,2.16,2.16,0,0,1,2,1.47l.28.78.82,0c.18,0,.24,0,.13,0A2.18,2.18,0,0,1,26.25,12c0-.1,0,0,0,.14l0,.82.79.27a2.16,2.16,0,0,1,1.47,2.05,2.19,2.19,0,0,1-.58,1.47l-.65.72.65.72a2.18,2.18,0,0,1-1.61,3.66c.1,0,.05,0-.14,0l-.82,0-.27.78A2.16,2.16,0,0,1,23,24.06a2.44,2.44,0,0,1-1.92-1l-.27-.41V20.78H18.59v5.47a3.56,3.56,0,0,0,1,2.56,5.07,5.07,0,0,0,1.88,1.06,12,12,0,0,1,1.3.55c.22.14.17,0,.17.21h2.19A2.58,2.58,0,0,0,24,28.57a8.75,8.75,0,0,0-1.71-.75,3.61,3.61,0,0,1-1.13-.61,1.08,1.08,0,0,1-.34-1v-.68a4,4,0,0,0,2.19.68A4.23,4.23,0,0,0,26.59,24a4.35,4.35,0,0,0,4-4.3,4.23,4.23,0,0,0-.69-2.19,4.23,4.23,0,0,0,.69-2.19,4.23,4.23,0,0,0-2.26-3.62,4.34,4.34,0,0,0-4-4,4.24,4.24,0,0,0-3.62-2.25,4,4,0,0,0-.48.07A4.18,4.18,0,0,0,17.5,4.38Z"/></svg>