<svg id="Layer_1" data-name="Layer 1" xmlns="http://www.w3.org/2000/svg" xmlns:xlink="http://www.w3.org/1999/xlink" viewBox="0 0 143 80.45"><defs><style>.cls-1{fill:none;}.cls-2{fill:#ffede3;}.cls-3{clip-path:url(#clip-path);}</style><clipPath id="clip-path"><rect class="cls-1" width="57.41" height="80.37"/></clipPath></defs><path class="cls-2" d="M84.61,7.06h2.75A7.21,7.21,0,0,0,80,1c-4.59,0-8,3.56-8,9.39s3.26,9.36,8.07,9.36c4.31,0,7.39-2.9,7.39-7.51V10.2h-7v2.28h4.39a4.55,4.55,0,0,1-4.8,4.8c-3.13,0-5.41-2.43-5.41-6.87S77,3.56,80,3.56A4.59,4.59,0,0,1,84.61,7.06Z"/><path class="cls-2" d="M90.88,19.54h10.73V17.17h-8V1.29H90.88Z"/><path class="cls-2" d="M110.42,19.54c5.41,0,8.54-3.45,8.54-9.15s-3.13-9.1-8.36-9.1h-5.93V19.54Zm-3.07-2.4V3.7h3.08c3.89,0,5.89,2.39,5.89,6.69s-2,6.75-6,6.75Z"/><path class="cls-2" d="M84.61,32.15h2.75a7.2,7.2,0,0,0-7.39-6c-4.59,0-8,3.55-8,9.38s3.26,9.36,8.07,9.36c4.31,0,7.39-2.9,7.39-7.51V35.3h-7v2.27h4.39a4.55,4.55,0,0,1-4.8,4.8c-3.13,0-5.41-2.43-5.41-6.87S77,28.65,80,28.65A4.6,4.6,0,0,1,84.61,32.15Z"/><path class="cls-2" d="M90.88,26.39V44.63h2.55V31.42h.17l5.23,13.19H101l5.24-13.18h.16v13.2h2.55V26.39h-3.25L100,40.57h-.21L94.13,26.39Z"/><path class="cls-2" d="M112.8,44.63h6.81c4.12,0,6-2.11,6-4.91s-1.93-4.42-3.69-4.51V35a3.71,3.71,0,0,0,3-3.85c0-2.7-1.82-4.79-5.6-4.79h-6.5Zm2.68-2.36V36.43h4a3.22,3.22,0,0,1,3.5,3.16c0,1.53-1,2.68-3.59,2.68Zm0-8V28.73h3.66c2.12,0,3.14,1.15,3.14,2.66a2.94,2.94,0,0,1-3.21,2.89Z"/><path class="cls-2" d="M128.78,44.63h2.68v-8h8.85v8H143V26.39h-2.69v7.93h-8.85V26.39h-2.68Z"/><g class="cls-3"><path class="cls-2" d="M.86.85l1.76,5.3H55.87L57.7.85Z"/><path class="cls-2" d="M42,9.3v5.23H36.23V9.3H22.32v5.23H16.53V9.3H2.62V62c5,9.35,14.83,16.41,26.69,18.5C41.11,78.29,50.85,71.3,55.87,62V9.3ZM24,21.72l3.25,3.22V49.73L24.87,52h6.85V46L35,42.74v7l-3.24,3.21H24V22.63H21.83l-.92-.91ZM9.68,24.94l3.25-3.22h4.45l3.25,3.22v7l-3.25-3.21V22.63H12.93V52a14.09,14.09,0,0,0,4.45-2.23v-15H15.26l-.92-.91h3l3.25,3.22V53L18,50.42A11.63,11.63,0,0,1,12.86,53L9.61,49.8V24.94ZM47,62.09H11.52L9.68,59H48.87ZM48.87,49.8,45.63,53H37.79V22.63H35.67l-.92-.91H45.63l3.24,3.22Z"/><path class="cls-2" d="M41,24.94V49.8l-2.33,2.3h6.85V22.63H38.71Z"/></g></svg>