
<svg xmlns="http://www.w3.org/2000/svg" viewBox="0 0 96.82 21.91">
    <path
        d="M54.06 14A18.45 18.45 0 0 0 49 15.68c-.51.3-1 .48-1.56.78-1 .53-2 1-3.06 1.56-.35.18-2.81 1.19-3.24 1.32-2.09.71-5.23 1.55-7.22.29C33 19 32.87 21 35 21.73a6.5 6.5 0 0 0 3.8-.24 31 31 0 0 0 3.29-1.25c1-.42 2.17-.9 3.24-1.32a6.29 6.29 0 0 1 .78-.36l1.59-.67a6.49 6.49 0 0 0 .79-.42l1.65-.53c.3-.12.52-.23.78-.36a23 23 0 0 1 6.66-1 12 12 0 0 1 1.94.3c1 .18.82-.59.13-1.08a8.19 8.19 0 0 0-5.59-.8Z"
        fill-rule="evenodd" fill="#ffede3" />
    <path fill="#ffede3"
        d="M0 0v10.91h1.24V2.62h.1l3.41 8.29h1.19l3.41-8.29h.11v8.29h1.24V0H9.12L5.41 9.06h-.13L1.58 0ZM13.79 10.91l1.1-3.09h4.41l1.1 3.09h1.38L17.78 0h-1.37l-4 10.91Zm1.51-4.26 1.75-4.92h.09l1.74 4.92ZM23.48 10.91h1.32V6.65h2.67l2.3 4.27h1.53L28.83 6.4a3 3 0 0 0 2-3.05c0-1.93-1.15-3.35-3.7-3.35h-3.65Zm1.32-5.46V1.17h2.32c1.77 0 2.46.86 2.46 2.18s-.69 2.1-2.43 2.1ZM33.08 10.91h1.32V7.37l1.36-1.53 3.79 5.07h1.6l-4.58-6L41.15 0h-1.72l-4.91 5.41h-.12V0h-1.32ZM49.06 10.91h1.37l2.4-8.69h.09l2.41 8.69h1.36L59.67 0h-1.34l-2.28 8.88h-.11L53.62 0h-1.49l-2.32 8.88h-.11L47.42 0h-1.34ZM61.32 10.91H68V9.74h-5.36V6h4.92V4.86h-4.92V1.17h5.26V0h-6.58ZM70.28 10.91h3.94c2.58 0 3.65-1.26 3.65-2.9a2.56 2.56 0 0 0-2.2-2.73v-.1a2.19 2.19 0 0 0 1.77-2.28c0-1.6-1.06-2.9-3.34-2.9h-3.82Zm1.32-1.17v-3.8h2.69A2.14 2.14 0 0 1 76.61 8c0 1-.66 1.73-2.39 1.73Zm0-4.95V1.17h2.5c1.45 0 2.09.77 2.09 1.73a2 2 0 0 1-2.14 1.89ZM80 10.91h6.67V9.74h-5.31V6h4.92V4.86h-4.92V1.17h5.26V0H80ZM89 10.91h1.32V6.65H93l2.3 4.27h1.53L94.36 6.4a3 3 0 0 0 2-3.05C96.4 1.42 95.25 0 92.69 0H89Zm1.32-5.46V1.17h2.33c1.77 0 2.45.86 2.45 2.18s-.68 2.1-2.43 2.1Z" />
</svg>